<?xml version="1.0" encoding="UTF-8"?>
<svg id="_Слой_1" data-name="Слой 1" xmlns="http://www.w3.org/2000/svg" viewBox="0 0 150.67 154.49">
  <defs>
    <style>
      .cls-1 {
        fill: #fff;
      }
    </style>
  </defs>
  <path class="cls-1" d="M75.1,141.8c-20.34,0-40.69,0-61.03,0-4.45,0-7.94-2.7-8.44-6.64-.45-3.56-.7-7.15-1.03-10.73-.72-7.75-1.45-15.51-2.17-23.26-.59-6.4-1.18-12.8-1.76-19.2-.22-2.44-.5-4.88-.65-7.32-.16-2.69,.68-3.51,3.41-3.51,21.6,0,43.2,0,64.79,0,6.22,0,12.44-.04,18.65,.02,3.08,.03,5.84-.78,7.59-3.37,2.58-3.82,5.99-4.69,10.45-4.6,13.96,.28,27.92,.1,41.88,.1,3.41,0,4.1,.83,3.81,4.19-.72,8.47-1.36,16.94-2.07,25.41-.71,8.52-1.46,17.04-2.18,25.56-.45,5.32-.85,10.64-1.35,15.96-.42,4.43-3.6,7.33-8.06,7.4-3.93,.06-7.85,.01-11.78,.01-16.69,0-33.38,0-50.07,0Zm45.92-68.09c5.13,0,10.25,.02,15.38-.01,1.78-.01,2.98-1.14,2.96-2.61-.02-1.5-1.21-2.52-3.01-2.54-1.53-.02-3.05,0-4.58,0-8.62,0-17.23,0-25.85,0-1.25,0-2.26,.32-2.84,1.5-.91,1.89,.44,3.65,2.88,3.67,5.02,.03,10.03,0,15.05,0Z"/>
  <path class="cls-1" d="M68.97,22.42c3.75,14.44,7.49,28.83,11.26,43.37h-7.69c-.73-2.74-1.61-3.24-4.46-2.52-1.26,.32-2.54,.6-3.78,.99-4.4,1.41-8.89,1.86-13.51,1.69-4.3-.16-8.61-.03-12.97-.31,2.94-.77,5.89-1.55,8.83-2.32,6.84-1.77,13.68-3.53,20.51-5.3,1.86-.48,2.74-1.57,2.54-3.05-.24-1.69-1.74-2.49-3.76-1.96-10.46,2.71-20.93,5.43-31.39,8.14-3.52,.91-7.04,1.82-10.56,2.77-.56,.15-1.36,.34-1.56,.75-.71,1.51-1.98,1.24-3.2,1.24-3.38,0-6.76-.02-10.14,.02-.91,0-1.42-.12-1.7-1.2-1.82-7.27-3.76-14.51-5.64-21.77-.53-2.05,.32-3.21,2.68-3.82,9.2-2.39,18.4-4.77,27.6-7.15,12.25-3.17,24.5-6.35,36.92-9.57ZM19.09,48.84c.11-.03,.32-.09,.53-.14,14.2-3.67,28.41-7.33,42.61-11.02,1.73-.45,2.58-1.85,2.17-3.27-.43-1.46-1.8-2.13-3.54-1.68-11.36,2.94-22.72,5.89-34.08,8.84-2.79,.72-5.59,1.4-8.36,2.16-1.5,.41-2.25,1.54-2.06,2.9,.17,1.26,1.35,2.25,2.74,2.21Zm45.24-6.19c-.25,.06-.67,.16-1.09,.27-10.78,2.78-21.57,5.57-32.35,8.35-3.31,.86-6.63,1.69-9.93,2.59-1.51,.41-2.29,1.76-1.95,3.12,.34,1.37,1.62,2.11,3.17,1.84,.37-.07,.75-.15,1.12-.25,10.47-2.7,20.93-5.4,31.4-8.12,3.47-.9,6.94-1.8,10.39-2.77,1.5-.42,2.27-1.63,1.98-2.93-.3-1.32-1.17-2.04-2.73-2.11Z"/>
  <path class="cls-1" d="M35.66,25.73c0-4.27-.04-8.35,.02-12.43,.02-1.38,.97-2.13,2.31-2.32,.43-.06,.87-.02,1.31-.02,21.1,0,42.21,0,63.31,0,2.85,0,3.7,.84,3.71,3.68,0,13.9,0,27.81,0,41.71v1.6h-7.87c-.38-2.29-2.12-2.57-4.22-2.52-3.7,.09-7.41,.03-11.31,.03-.45-1.7-.91-3.39-1.4-5.24,3.59,0,7.02,0,10.44,0,1.15,0,2.29,.03,3.44-.01,1.84-.07,2.92-1.07,2.9-2.63-.01-1.56-1.11-2.56-2.94-2.57-4.58-.02-9.16-.05-13.74,.02-1.14,.02-1.66-.28-1.84-1.45-.19-1.22-.61-2.41-.98-3.83,1.82,0,3.49,0,5.16,0,3.65,0,7.31,0,10.96,0,2.23,0,3.4-.94,3.38-2.65-.02-1.69-1.19-2.56-3.45-2.57-5.34,0-10.69-.03-16.03,.02-1.07,.01-1.56-.27-1.74-1.36-.21-1.26-.6-2.5-.95-3.9,5.87,0,11.54,0,17.2,0,.65,0,1.31,.02,1.96,0,1.93-.06,3.05-1.07,3.01-2.69-.04-1.54-1.14-2.52-2.99-2.53-4.74-.03-9.49,0-14.23,0-2.07,0-4.14,0-6.33,0-.4-1.56-.78-3.07-1.19-4.57-.67-2.49-1.72-3.11-4.19-2.47-6.36,1.65-12.72,3.32-19.08,4.97-4.78,1.24-9.57,2.46-14.61,3.76Z"/>
  <path class="cls-1" d="M111.51,57.93v-9.77c.86,.3,1.61,.54,2.34,.83,3.39,1.33,6.75,2.71,10.16,3.99,2.18,.82,4.16-.68,3.57-2.77-.23-.82-1.17-1.71-2-2.06-4.25-1.8-8.56-3.47-12.87-5.12-.94-.36-1.4-.81-1.33-1.88,.09-1.34,.02-2.7,.02-4.31,1.21,.45,2.2,.81,3.19,1.2,4.25,1.67,8.48,3.38,12.75,4.98,.82,.31,1.95,.55,2.63,.21,.72-.36,1.34-1.39,1.53-2.23,.26-1.19-.59-2.05-1.69-2.49-3.68-1.47-7.38-2.9-11.07-4.36-2.12-.84-4.25-1.66-6.35-2.57-.41-.18-.95-.69-.95-1.06-.07-3.96-.04-7.92-.04-12.17,2.69,1.08,5.13,2.06,7.58,3.04,8.73,3.49,17.45,6.97,26.18,10.46,2.48,.99,3.01,2.14,2.07,4.54-2.69,6.82-5.37,13.65-8.12,20.45-.21,.51-.89,1.17-1.36,1.18-8.56,.07-17.11,.05-25.67,.04-.16,0-.31-.06-.57-.12Z"/>
  <path class="cls-1" d="M7.31,32.87c-.22-3.48-.38-6.88,2.52-9.29,1.16-.97,2.72-1.95,4.14-2.01,5.42-.23,10.85-.09,16.44-.09,0,1.72,.04,3.34-.03,4.96-.01,.3-.42,.77-.72,.85-7.24,1.9-14.48,3.76-21.73,5.62-.15,.04-.32,0-.62-.02Z"/>
  <path class="cls-1" d="M94.11,60.71c-2.79,2.28-3.94,6.28-8.56,5.01-.39-1.52-.83-3.21-1.29-5.01h9.85Z"/>
</svg>