<?xml version="1.0" encoding="UTF-8"?>
<svg id="_Слой_1" data-name="Слой 1" xmlns="http://www.w3.org/2000/svg" viewBox="0 0 150.67 154.49">
  <defs>
    <style>
      .cls-1 {
        fill: #fff;
      }
    </style>
  </defs>
  <path class="cls-1" d="M122.15,29.36c-3.55,.92-6.91,1.78-10.27,2.67-12.28,3.26-24.55,6.55-36.83,9.77-.83,.22-1.82,.18-2.66-.04-16.63-4.37-33.25-8.78-49.88-13.19-.29-.08-.65-.09-.86-.27-.56-.48-1.36-.95-1.52-1.56-.27-1.04,.67-1.45,1.54-1.68,4.48-1.19,8.97-2.37,13.46-3.56,12.43-3.29,24.86-6.6,37.3-9.86,.83-.22,1.81-.22,2.64,0,16.87,4.43,33.72,8.91,50.58,13.37,1.39,.37,2.16,1.05,1.62,2.61-.12,.37-.05,.8-.05,1.21,0,8.15,.02,16.29-.03,24.44,0,1.13,.33,1.8,1.33,2.23,.55,.24,1.04,.62,1.58,.89,1.03,.51,1.39,1.33,1.38,2.46-.04,4.96,.02,9.92-.05,14.87-.01,.71-.37,1.75-.89,2.03-.5,.27-1.57-.05-2.14-.46-4.37-3.13-2.97-3.12-7.34-.02-.58,.41-1.63,.76-2.14,.5-.52-.26-.89-1.3-.9-2.01-.08-4.96-.02-9.92-.06-14.87-.01-1.27,.42-2.2,1.62-2.61,2.29-.78,2.75-2.35,2.7-4.65-.16-6.98-.06-13.96-.06-20.94,0-.35-.03-.7-.06-1.32Z"/>
  <path class="cls-1" d="M34.03,36.58c4.04,1.07,7.93,2.1,11.82,3.13,8.68,2.3,17.33,4.66,26.04,6.83,1.48,.37,3.23,.18,4.73-.21,11.87-3.07,23.7-6.25,35.55-9.4,.38-.1,.77-.16,1.29-.26,.03,.55,.08,.98,.08,1.42,0,7.64,0,15.28,0,22.92,0,1.98-.34,2.42-2.22,2.77-9.63,1.78-19.25,3.53-28.88,5.31-6.92,1.28-13.79,.77-20.64-.52-8.48-1.59-16.96-3.19-25.44-4.78-2.1-.39-2.32-.65-2.32-2.77,0-7.59,0-15.18,0-22.77v-1.67Z"/>
  <path class="cls-1" d="M89.11,132.72c-.58,4.83-2.68,7.47-6.58,8.38-.54,.12-1.1,.16-1.65,.17-3.64,.01-7.29,.03-10.93,0-4.17-.03-7.47-2.87-8-7-.16-1.24-.62-1.65-1.82-1.83-10.93-1.64-21.85-3.36-32.77-5.04-8.18-1.26-16.36-2.5-24.55-3.73-1.95-.29-2.97-1.3-2.79-2.88,.18-1.53,1.41-2.28,3.43-1.98,9.73,1.47,19.46,2.97,29.18,4.46,8.83,1.35,17.66,2.7,26.49,4.06,1.8,.28,3.59,.59,5.38,.86,1.51,.23,2.13,1.19,2.26,2.61,.01,.15,0,.3,0,.46,.08,4.59,.67,5.16,5.34,5.16,2.68,0,5.36,.02,8.05,0,2.66-.02,3.87-1.24,3.92-3.91,.06-3.31,.8-4.09,4.05-4.59,12.12-1.87,24.23-3.79,36.35-5.66,7.68-1.19,15.37-2.34,23.06-3.49,1.63-.24,2.86,.55,3.09,1.92,.25,1.47-.69,2.69-2.36,2.95-8.73,1.35-17.46,2.66-26.18,4.01-9.53,1.47-19.05,2.96-28.57,4.44-1.48,.23-2.97,.45-4.4,.67Z"/>
  <path class="cls-1" d="M146.65,86.4c-1.1,3.22-2.11,6.21-3.17,9.18-.08,.22-.55,.4-.85,.42-24.9,2.15-45.92,13.14-65.01,28.51-.51,.41-1,.84-1.74,1.12,.48-.9,.93-1.82,1.45-2.7,9.6-16.37,23.92-26.67,41.8-32.33,8.29-2.63,16.81-3.89,25.48-4.19,.59-.02,1.18,0,2.03,0Z"/>
  <path class="cls-1" d="M74.97,125.94c-3.33-2.58-6.22-5.01-9.29-7.18-14.44-10.24-30.06-17.95-47.48-21.65-3.25-.69-6.59-.98-9.9-1.34-.84-.09-1.24-.31-1.5-1.1-.86-2.67-1.79-5.33-2.79-8.28,15.32,.23,29.63,3.41,42.88,10.76,12.11,6.71,21.43,16.15,28.08,28.8Z"/>
  <path class="cls-1" d="M8.89,100.71c12.1-.52,44.89,12.98,54.47,22.48-2.12-.8-3.92-1.54-5.75-2.18-9-3.12-18.26-5.08-27.75-5.88-5.08-.43-10.19-.59-15.28-.91-.44-.03-1.11-.34-1.23-.68-1.52-4.22-2.95-8.46-4.45-12.83Z"/>
  <path class="cls-1" d="M87.61,123.02c16.25-11.53,33.68-20.07,53.98-22.27-.15,.62-.2,.99-.32,1.34-1.2,3.53-2.48,7.03-3.59,10.59-.38,1.22-.9,1.59-2.18,1.6-13.69,.18-27.18,1.74-40.26,6.01-2.57,.84-5.09,1.82-7.64,2.73Z"/>
</svg>