<?xml version="1.0" encoding="UTF-8"?>
<svg id="_Слой_1" data-name="Слой 1" xmlns="http://www.w3.org/2000/svg" viewBox="0 0 150.67 154.49">
  <defs>
    <style>
      .cls-1 {
        fill: #fff;
      }
    </style>
  </defs>
  <path class="cls-1" d="M16.65,8.23c.96,0,1.46,0,1.95,0,26.91,0,53.82,0,80.72,0,6.53,0,10.7,4.19,10.7,10.75,0,10.81,.01,21.62-.03,32.43,0,.65-.26,1.54-.72,1.91-4.34,3.4-7.85,7.47-10.46,12.32-.09,.17-.22,.32-.33,.48-3.19-1.39-4.55-1.1-6.75,1.6-5.19,6.34-7.25,13.63-6.28,21.72,.33,2.74,1.18,5.42,1.67,8.15,.11,.61-.08,1.46-.46,1.96-2.74,3.61-5.6,7.13-8.35,10.72-1.93,2.52-1.58,5.52,.74,7.26,2.42,1.81,5.35,1.28,7.32-1.26,2.62-3.39,5.29-6.73,7.9-10.13,.68-.88,1.27-1.19,2.48-.83,2.13,.62,4.35,1.03,6.57,1.24,2.16,.2,4.36,.04,6.61,.04v16.04H43.64c0,2.4,.03,4.67,0,6.94-.08,5.28-3.48,9.7-8.54,11.15-7.12,2.04-14.43-3.21-14.77-10.6-.04-.8-.04-1.59-.04-2.39,0-36.12-.02-72.24,.02-108.36,0-4.02-.35-7.85-3.65-11.14Zm50.45,45.4c-11.5,0-23,0-34.5,0-1.17,0-2.13,.2-2.24,1.58-.09,1.11,.75,1.72,2.27,1.76,.15,0,.3,0,.45,0,22.6,0,45.2,0,67.81-.01,.63,0,1.38,.01,1.86-.3,.45-.29,.93-1.07,.85-1.52-.1-.54-.73-1.09-1.26-1.41-.37-.22-.97-.07-1.47-.07-11.25,0-22.5,0-33.75,0Zm-.08-16.79c-11.26,0-22.51,0-33.77,0-.5,0-1.1-.16-1.47,.07-.56,.34-1.31,.93-1.34,1.45-.03,.53,.64,1.2,1.16,1.6,.33,.25,.96,.14,1.45,.14,22.61,0,45.23,0,67.84,0,.54,0,1.21,.09,1.6-.18,.5-.34,1.15-1.06,1.08-1.52-.08-.56-.76-1.14-1.32-1.49-.36-.23-.97-.07-1.47-.07-11.26,0-22.51,0-33.77,0Zm-19.3,36.86c5.02,0,10.05-.02,15.07,.01,1.22,0,2.24-.21,2.38-1.63,.11-1.06-.8-1.69-2.31-1.69-10.05,0-20.09,0-30.14-.01-1.21,0-2.24,.19-2.36,1.63-.09,1.14,.74,1.68,2.44,1.68,4.97,0,9.95,0,14.92,0ZM30.95,19.01c3.16,0,6.09-.02,9.02,.01,1.2,.01,2.17-.32,2.16-1.65,0-1.32-.99-1.68-2.18-1.68-3.33,.01-6.66,0-9.99,0-1.76,0-2.26,.52-2.27,2.35-.02,2.93,0,5.87,0,8.8,0,.89,0,1.79,0,2.68,0,1.11,.5,1.89,1.65,1.87,1.16-.01,1.6-.84,1.61-1.93,0-.55,0-1.09,0-1.64,0-2.88,0-5.75,0-8.84Zm14.84-2.05c0,.24-.02,.48-.02,.72,.6,.44,1.14,1.13,1.8,1.27,1.04,.21,1.71-.56,1.73-1.57,.02-.97-.68-1.68-1.61-1.55-.67,.09-1.26,.74-1.89,1.14Z"/>
  <path class="cls-1" d="M130.49,78.29c2.23,1.73,4.59,2.84,7.17,3.44,1.24,.29,1.34,.87,.65,1.78-5.79,7.6-12.59,13.98-21.63,17.57-7.07,2.81-14.2,3.24-21.33,.2-.84-.36-1.24-.09-1.72,.53-3.27,4.14-6.55,8.28-9.9,12.36-.43,.52-1.31,1.02-1.94,.98-1.45-.1-1.85-1.63-.8-2.96,3.45-4.38,6.82-8.83,10.43-13.08,12.32-14.49,26.08-27.56,40.11-40.36,.69-.62,1.44-1.18,2.18-1.78-1.85-1.16-3.82-1.1-5.52,.42-3.35,2.97-6.63,6.03-9.89,9.11-9.65,9.09-18.99,18.49-27.71,28.48-.13,.15-.29,.27-.75,.7-.44-2.63-1.03-4.98-1.21-7.36-.51-6.86,1.16-13.12,5.64-18.49,1.45-1.74,1.75-1.7,2.81,.23,.55,1,1.1,2,1.67,3,.04,.06,.17,.07,.35,.15,.21-.54,.42-1.08,.62-1.62,4.05-10.51,11.76-17.31,22.02-21.39,8.88-3.53,18.16-4.64,27.66-4.31,.84,.03,1.39,.3,1.27,1.23-1.05,8.04-2.74,15.89-7.51,22.69-3.08,4.38-7.07,7.47-12.64,8.49Z"/>
  <path class="cls-1" d="M36.99,144.46c6.84-1.86,9.97-5.98,9.97-12.7,0-1.84,0-3.68,0-5.65H125.2c-.18,3.29,0,6.62-.62,9.79-.96,4.92-5.76,8.61-10.7,8.61-25.3,.03-50.61,.02-75.91,.01-.2,0-.4-.03-.99-.07Z"/>
  <path class="cls-1" d="M16.84,27.33H.11C.11,23.3-.19,19.31,.2,15.39c.43-4.36,4.16-7.2,8.51-7.16,4.13,.04,7.67,2.97,8.06,7.29,.35,3.88,.07,7.81,.07,11.81Z"/>
</svg>