<?xml version="1.0" encoding="UTF-8"?>
<svg id="_Слой_1" data-name="Слой 1" xmlns="http://www.w3.org/2000/svg" viewBox="0 0 150.67 154.49">
  <defs>
    <style>
      .cls-1 {
        fill: #fff;
      }
    </style>
  </defs>
  <polygon class="cls-1" points="27.6 118 27.96 118 27.96 127.23 28.43 127.23 28.43 130.56 21.36 130.56 21.36 127.23 21.82 127.23 21.82 118 22.19 118 22.19 65.96 21.82 65.96 21.82 56.73 21.36 56.73 21.36 53.15 28.43 53.15 28.43 56.73 27.96 56.73 27.96 65.96 27.6 65.96 27.6 118"/>
  <polygon class="cls-1" points="128.48 65.96 128.48 77.71 128.48 77.71 128.48 118 128.85 118 128.85 127.23 129.31 127.23 129.31 130.56 122.24 130.56 122.24 127.23 122.7 127.23 122.7 118 123.07 118 123.07 106.25 123.07 106.25 123.07 65.96 122.7 65.96 122.7 56.73 122.24 56.73 122.24 53.15 129.31 53.15 129.31 56.73 128.85 56.73 128.85 65.96 128.48 65.96"/>
  <rect class="cls-1" x="122.24" y="130.56" width="7.07" height=".26"/>
  <rect class="cls-1" x="21.36" y="130.56" width="7.07" height=".26"/>
  <path class="cls-1" d="M102.53,30.73v-1.9c0-13.09-20.7-22.29-26-24.44-.55-.54-.91-1.27-1.07-1.65,.26-.06,.45-.28,.45-.55s-.2-.5-.47-.55c0,0-.03,0-.03,0-.01,0-.02,0-.04,0v-.56c.18-.02,.32-.17,.32-.36s-.15-.35-.35-.36l-.02-1.21-.02,1.21c-.19,.01-.35,.17-.35,.36s.15,.34,.33,.36v.56s-.03,0-.05,0c0,0-.02,0-.03,0-.26,.05-.47,.28-.47,.55s.2,.49,.45,.55c-.15,.38-.52,1.11-1.07,1.65-5.31,2.14-26,11.35-26,24.44v1.9h54.39Z"/>
  <polygon class="cls-1" points="110.93 34.95 111.32 32.79 75.33 32.79 39.35 32.79 39.74 34.95 13.63 34.95 15.25 40.24 15.44 40.85 15.44 40.86 15.54 41.19 16.85 41.19 18.58 46.94 19.74 50.83 75.33 50.83 130.93 50.83 132.09 46.94 133.82 41.19 135.12 41.19 135.22 40.86 135.23 40.85 135.41 40.24 137.04 34.95 110.93 34.95"/>
  <path class="cls-1" d="M75.56,65.48l-.22-.12-.23,.12c-.41,.23-10.01,5.47-10.01,10.4v54.67h20.47v-54.67c0-4.94-9.6-10.18-10.01-10.4Zm7.09,63.26h-14.63v-26.48h14.63v26.48Zm0-40.91h-14.63v-10.67c0-3.54,6.8-7.25,7.09-7.41l.23-.12,.22,.12c.29,.16,7.09,3.88,7.09,7.41v10.67Z"/>
  <rect class="cls-1" x="99.19" y="53.15" width="20.69" height="77.41"/>
  <path class="cls-1" d="M97.67,53.15v77.41h-8.83v-57.76c-2.05-5.89-12.76-11.74-13.25-11.99l-.26-.14-.26,.14c-.49,.26-11.21,6.1-13.25,11.99v57.76h-8.83V53.15h44.68Z"/>
  <rect class="cls-1" x="30.79" y="53.15" width="20.69" height="77.41"/>
  <rect class="cls-1" x="17.33" y="132.71" width="114.1" height="3.86"/>
  <rect class="cls-1" x="15.21" y="138.73" width="118.35" height="14.9"/>
</svg>