<svg width="56" height="58" viewBox="0 0 56 58" fill="none" xmlns="http://www.w3.org/2000/svg">
<path d="M25.2188 1.69052C26.7695 0.190381 29.2305 0.190381 30.7812 1.69052L34.0111 4.81512C34.8978 5.67297 36.1308 6.07359 37.3525 5.9008L41.8021 5.27143C43.9384 4.96926 45.9294 6.4158 46.3021 8.5409L47.0786 12.9672C47.2917 14.1825 48.0538 15.2313 49.1437 15.8096L53.1134 17.9158C55.0193 18.9271 55.7798 21.2676 54.8323 23.206L52.8587 27.2433C52.3169 28.3518 52.3169 29.6482 52.8587 30.7567L54.8323 34.794C55.7798 36.7324 55.0193 39.0729 53.1134 40.0842L49.1437 42.1904C48.0538 42.7687 47.2917 43.8175 47.0786 45.0328L46.3021 49.4591C45.9294 51.5842 43.9384 53.0307 41.8021 52.7286L37.3525 52.0992C36.1308 51.9264 34.8978 52.327 34.0111 53.1849L30.7812 56.3095C29.2305 57.8096 26.7695 57.8096 25.2188 56.3095L21.9889 53.1849C21.1022 52.327 19.8692 51.9264 18.6475 52.0992L14.1979 52.7286C12.0616 53.0307 10.0706 51.5842 9.69787 49.4591L8.92142 45.0328C8.70826 43.8175 7.94622 42.7687 6.85634 42.1904L2.88657 40.0842C0.980669 39.0729 0.220181 36.7324 1.16771 34.794L3.14129 30.7567C3.68313 29.6482 3.68313 28.3518 3.14129 27.2433L1.16771 23.206C0.220181 21.2676 0.980668 18.9271 2.88657 17.9158L6.85634 15.8096C7.94622 15.2313 8.70826 14.1825 8.92142 12.9672L9.69787 8.5409C10.0706 6.4158 12.0616 4.96926 14.1979 5.27143L18.6475 5.9008C19.8692 6.07359 21.1022 5.67297 21.9889 4.81512L25.2188 1.69052Z" fill="#B6A38C"/>
</svg>
