<?xml version="1.0" encoding="UTF-8"?>
<svg id="_Слой_1" data-name="Слой 1" xmlns="http://www.w3.org/2000/svg" viewBox="0 0 150.67 154.49">
  <defs>
    <style>
      .cls-1 {
        fill: #fff;
      }
    </style>
  </defs>
  <path class="cls-1" d="M134.47,92.42h-10.98c1.31-16.4-3.81-30.31-15.97-41.35-9.36-8.5-20.56-12.62-33.17-12.31-14.07,.34-25.97,5.85-35.3,16.45-9.33,10.59-13.09,23.08-11.86,37.2h-11.05c0-.67,0-1.27,0-1.87,0-27.8,0-55.61,0-83.41,0-4.07,2.02-6.1,6.06-6.11,8.91,0,17.82,.03,26.73,0,9.67-.04,18.06,3.21,25.26,9.63,.33,.3,.67,.59,1.1,.97,1.25-1.03,2.45-2.1,3.73-3.07,6.55-4.95,13.92-7.51,22.15-7.52,9.3,0,18.61-.01,27.91,0,3.14,0,5.43,2.26,5.43,5.38,.01,28.31,0,56.62,0,84.92,0,.33-.03,.66-.05,1.09Z"/>
  <path class="cls-1" d="M32.17,87.07c.12-21.27,15.46-39.15,36.65-42.58,22.8-3.69,45.07,12.31,48.91,35.1,1.87,11.09-.2,21.37-6.21,30.84-.66,1.04-.64,1.63,.28,2.36,.61,.49,1.15,1.07,1.67,1.66,1.27,1.44,2.44,2.55,4.77,2.03,1.19-.26,3.04,.56,4.02,1.49,4.92,4.67,9.72,9.46,14.41,14.36,4.5,4.7,4.33,11.75-.17,16.16-4.48,4.4-11.52,4.37-16.17-.18-4.73-4.62-9.35-9.35-14.05-14.01-1.58-1.57-2.13-3.44-1.54-5.52,.27-.95,0-1.44-.6-2.02-1.1-1.04-2.19-2.1-3.2-3.22-.72-.8-1.27-.88-2.24-.25-7.24,4.67-15.16,6.96-23.81,6.92-19.25-.1-36.49-13.5-41.23-32.18-.4-1.57-.76-3.16-.97-4.76-.26-2.05-.35-4.12-.51-6.19Zm43.21,32.35c17.71-.04,32.3-14.7,32.23-32.39-.07-17.67-14.6-32.17-32.25-32.2-17.7-.02-32.32,14.59-32.32,32.3,0,17.71,14.64,32.32,32.34,32.28Z"/>
  <path class="cls-1" d="M118.82,108.6c1.31-3.64,2.55-7.09,3.84-10.67h17.17V17.28c2.27-.29,4.12,.42,5.81,1.51,3.29,2.13,5.03,5.18,5.03,9.14,0,25,0,50,0,75,0,3.5-2.17,5.71-5.61,5.72-8.35,.01-16.7,0-25.05,0-.39,0-.77-.03-1.19-.05Z"/>
  <path class="cls-1" d="M10.77,17.25V97.82H27.94c1.3,3.66,2.57,7.19,3.86,10.83-.84,0-1.67,0-2.5,0-7.9,0-15.8,0-23.7,0-3.36,0-5.6-2.22-5.6-5.56C0,77.93,0,52.77,.01,27.6c0-5.73,5.03-10.61,10.76-10.36Z"/>
  <path class="cls-1" d="M75.34,60.22c14.9,0,26.89,11.98,26.89,26.87,0,14.99-11.98,26.95-27,26.94-14.92,0-26.83-12.05-26.81-27.13,.02-14.73,12.07-26.69,26.91-26.68Zm.62,5.39c-1.91-.03-3.24,1.02-3.3,2.6-.05,1.56,1.22,2.68,3.15,2.77,8.78,.41,15.19,6.84,15.65,15.74,.1,1.83,1.17,3.06,2.68,3.08,1.58,.01,2.71-1.33,2.69-3.21-.06-11.04-9.77-20.79-20.88-20.97Z"/>
</svg>